<mxfile host="app.diagrams.net" modified="2023-04-20T12:40:55.289Z" agent="Mozilla/5.0 (X11; Linux x86_64) AppleWebKit/537.36 (KHTML, like Gecko) Chrome/112.0.0.0 Safari/537.36 " etag="EaixsZaUieW-6y-MOrjD" version="21.2.0">
  <diagram name="Page-1" id="-PD6xESSsntQAEtiDoTq">
    <mxGraphModel dx="878" dy="498" grid="1" gridSize="10" guides="1" tooltips="1" connect="1" arrows="1" fold="1" page="1" pageScale="1" pageWidth="850" pageHeight="1100" math="0" shadow="0">
      <root>
        <mxCell id="0" />
        <mxCell id="1" parent="0" />
        <mxCell id="6POPiay6UJHN39M8ESPT-4" style="edgeStyle=orthogonalEdgeStyle;rounded=0;orthogonalLoop=1;jettySize=auto;html=1;" parent="1" source="6POPiay6UJHN39M8ESPT-1" target="6POPiay6UJHN39M8ESPT-3" edge="1">
          <mxGeometry relative="1" as="geometry" />
        </mxCell>
        <mxCell id="6POPiay6UJHN39M8ESPT-1" value="Start" style="strokeWidth=2;html=1;shape=mxgraph.flowchart.start_1;whiteSpace=wrap;" parent="1" vertex="1">
          <mxGeometry x="150" y="20" width="130" height="78" as="geometry" />
        </mxCell>
        <mxCell id="6POPiay6UJHN39M8ESPT-2" value="Stop" style="strokeWidth=2;html=1;shape=mxgraph.flowchart.start_1;whiteSpace=wrap;" parent="1" vertex="1">
          <mxGeometry x="160" y="820" width="100" height="60" as="geometry" />
        </mxCell>
        <mxCell id="6POPiay6UJHN39M8ESPT-8" style="edgeStyle=orthogonalEdgeStyle;rounded=0;orthogonalLoop=1;jettySize=auto;html=1;entryX=0.543;entryY=0.026;entryDx=0;entryDy=0;entryPerimeter=0;" parent="1" source="6POPiay6UJHN39M8ESPT-3" target="6POPiay6UJHN39M8ESPT-5" edge="1">
          <mxGeometry relative="1" as="geometry">
            <Array as="points">
              <mxPoint x="215" y="289" />
              <mxPoint x="216" y="289" />
            </Array>
          </mxGeometry>
        </mxCell>
        <mxCell id="6POPiay6UJHN39M8ESPT-3" value="Enter card details" style="shape=parallelogram;html=1;strokeWidth=2;perimeter=parallelogramPerimeter;whiteSpace=wrap;rounded=1;arcSize=12;size=0.23;" parent="1" vertex="1">
          <mxGeometry x="140" y="160" width="150" height="90" as="geometry" />
        </mxCell>
        <mxCell id="6POPiay6UJHN39M8ESPT-15" style="edgeStyle=orthogonalEdgeStyle;rounded=0;orthogonalLoop=1;jettySize=auto;html=1;entryX=0;entryY=0.5;entryDx=0;entryDy=0;entryPerimeter=0;" parent="1" source="6POPiay6UJHN39M8ESPT-5" target="6POPiay6UJHN39M8ESPT-9" edge="1">
          <mxGeometry relative="1" as="geometry" />
        </mxCell>
        <mxCell id="6POPiay6UJHN39M8ESPT-44" style="edgeStyle=orthogonalEdgeStyle;rounded=0;orthogonalLoop=1;jettySize=auto;html=1;" parent="1" source="6POPiay6UJHN39M8ESPT-5" target="6POPiay6UJHN39M8ESPT-40" edge="1">
          <mxGeometry relative="1" as="geometry" />
        </mxCell>
        <mxCell id="6POPiay6UJHN39M8ESPT-5" value="Create card in Database" style="rounded=1;whiteSpace=wrap;html=1;absoluteArcSize=1;arcSize=14;strokeWidth=2;" parent="1" vertex="1">
          <mxGeometry x="140" y="329" width="140" height="84" as="geometry" />
        </mxCell>
        <mxCell id="6POPiay6UJHN39M8ESPT-18" style="edgeStyle=orthogonalEdgeStyle;rounded=0;orthogonalLoop=1;jettySize=auto;html=1;entryX=0.5;entryY=0;entryDx=0;entryDy=0;" parent="1" source="6POPiay6UJHN39M8ESPT-21" target="6POPiay6UJHN39M8ESPT-17" edge="1">
          <mxGeometry relative="1" as="geometry" />
        </mxCell>
        <mxCell id="6POPiay6UJHN39M8ESPT-9" value="Cards&lt;br&gt;Database" style="strokeWidth=2;html=1;shape=mxgraph.flowchart.database;whiteSpace=wrap;" parent="1" vertex="1">
          <mxGeometry x="390" y="311" width="120" height="120" as="geometry" />
        </mxCell>
        <mxCell id="6POPiay6UJHN39M8ESPT-48" style="edgeStyle=orthogonalEdgeStyle;rounded=0;orthogonalLoop=1;jettySize=auto;html=1;entryX=0.5;entryY=0;entryDx=0;entryDy=0;entryPerimeter=0;" parent="1" source="6POPiay6UJHN39M8ESPT-17" target="6POPiay6UJHN39M8ESPT-19" edge="1">
          <mxGeometry relative="1" as="geometry" />
        </mxCell>
        <mxCell id="6POPiay6UJHN39M8ESPT-17" value="Card" style="shape=parallelogram;html=1;strokeWidth=2;perimeter=parallelogramPerimeter;whiteSpace=wrap;rounded=1;arcSize=12;size=0.23;" parent="1" vertex="1">
          <mxGeometry x="400" y="860" width="100" height="60" as="geometry" />
        </mxCell>
        <mxCell id="6POPiay6UJHN39M8ESPT-47" style="edgeStyle=orthogonalEdgeStyle;rounded=0;orthogonalLoop=1;jettySize=auto;html=1;entryX=1;entryY=0.5;entryDx=0;entryDy=0;" parent="1" source="6POPiay6UJHN39M8ESPT-19" target="6POPiay6UJHN39M8ESPT-21" edge="1">
          <mxGeometry relative="1" as="geometry">
            <Array as="points">
              <mxPoint x="710" y="720" />
            </Array>
          </mxGeometry>
        </mxCell>
        <mxCell id="6POPiay6UJHN39M8ESPT-50" value="" style="edgeStyle=orthogonalEdgeStyle;rounded=0;orthogonalLoop=1;jettySize=auto;html=1;" parent="1" source="6POPiay6UJHN39M8ESPT-19" target="6POPiay6UJHN39M8ESPT-49" edge="1">
          <mxGeometry relative="1" as="geometry" />
        </mxCell>
        <mxCell id="6POPiay6UJHN39M8ESPT-19" value="Is the card due today or before today?" style="strokeWidth=2;html=1;shape=mxgraph.flowchart.decision;whiteSpace=wrap;" parent="1" vertex="1">
          <mxGeometry x="400" y="980" width="100" height="100" as="geometry" />
        </mxCell>
        <mxCell id="6POPiay6UJHN39M8ESPT-21" value="Retrieve a card from Database" style="rounded=1;whiteSpace=wrap;html=1;absoluteArcSize=1;arcSize=14;strokeWidth=2;" parent="1" vertex="1">
          <mxGeometry x="400" y="670" width="100" height="100" as="geometry" />
        </mxCell>
        <mxCell id="6POPiay6UJHN39M8ESPT-33" value="False" style="text;html=1;align=center;verticalAlign=middle;resizable=0;points=[];autosize=1;strokeColor=none;fillColor=none;" parent="1" vertex="1">
          <mxGeometry x="500" y="1000" width="50" height="30" as="geometry" />
        </mxCell>
        <mxCell id="6POPiay6UJHN39M8ESPT-39" style="edgeStyle=orthogonalEdgeStyle;rounded=0;orthogonalLoop=1;jettySize=auto;html=1;entryX=0.5;entryY=0;entryDx=0;entryDy=0;entryPerimeter=0;" parent="1" source="6POPiay6UJHN39M8ESPT-35" target="6POPiay6UJHN39M8ESPT-2" edge="1">
          <mxGeometry relative="1" as="geometry" />
        </mxCell>
        <mxCell id="6POPiay6UJHN39M8ESPT-45" style="edgeStyle=orthogonalEdgeStyle;rounded=0;orthogonalLoop=1;jettySize=auto;html=1;" parent="1" source="6POPiay6UJHN39M8ESPT-35" target="6POPiay6UJHN39M8ESPT-21" edge="1">
          <mxGeometry relative="1" as="geometry" />
        </mxCell>
        <mxCell id="6POPiay6UJHN39M8ESPT-35" value="Daily revision target reached?" style="strokeWidth=2;html=1;shape=mxgraph.flowchart.decision;whiteSpace=wrap;" parent="1" vertex="1">
          <mxGeometry x="160" y="670" width="100" height="100" as="geometry" />
        </mxCell>
        <mxCell id="6POPiay6UJHN39M8ESPT-41" style="edgeStyle=orthogonalEdgeStyle;rounded=0;orthogonalLoop=1;jettySize=auto;html=1;entryX=0.5;entryY=0;entryDx=0;entryDy=0;entryPerimeter=0;" parent="1" source="6POPiay6UJHN39M8ESPT-40" target="6POPiay6UJHN39M8ESPT-35" edge="1">
          <mxGeometry relative="1" as="geometry" />
        </mxCell>
        <mxCell id="6POPiay6UJHN39M8ESPT-43" style="edgeStyle=orthogonalEdgeStyle;rounded=0;orthogonalLoop=1;jettySize=auto;html=1;entryX=0;entryY=0.5;entryDx=0;entryDy=0;entryPerimeter=0;" parent="1" source="6POPiay6UJHN39M8ESPT-40" target="6POPiay6UJHN39M8ESPT-2" edge="1">
          <mxGeometry relative="1" as="geometry">
            <Array as="points">
              <mxPoint x="60" y="570" />
              <mxPoint x="60" y="850" />
            </Array>
          </mxGeometry>
        </mxCell>
        <mxCell id="6POPiay6UJHN39M8ESPT-40" value="Revise?" style="strokeWidth=2;html=1;shape=mxgraph.flowchart.decision;whiteSpace=wrap;" parent="1" vertex="1">
          <mxGeometry x="160" y="520" width="100" height="100" as="geometry" />
        </mxCell>
        <mxCell id="6POPiay6UJHN39M8ESPT-52" style="edgeStyle=orthogonalEdgeStyle;rounded=0;orthogonalLoop=1;jettySize=auto;html=1;" parent="1" source="6POPiay6UJHN39M8ESPT-49" target="6POPiay6UJHN39M8ESPT-35" edge="1">
          <mxGeometry relative="1" as="geometry">
            <Array as="points">
              <mxPoint x="800" y="1150" />
              <mxPoint x="800" y="640" />
              <mxPoint x="210" y="640" />
            </Array>
          </mxGeometry>
        </mxCell>
        <mxCell id="6POPiay6UJHN39M8ESPT-49" value="Ask card question to user" style="rounded=1;whiteSpace=wrap;html=1;absoluteArcSize=1;arcSize=14;strokeWidth=2;" parent="1" vertex="1">
          <mxGeometry x="400" y="1125" width="100" height="100" as="geometry" />
        </mxCell>
        <mxCell id="6POPiay6UJHN39M8ESPT-53" value="False" style="text;html=1;align=center;verticalAlign=middle;resizable=0;points=[];autosize=1;strokeColor=none;fillColor=none;" parent="1" vertex="1">
          <mxGeometry x="125" y="540" width="50" height="30" as="geometry" />
        </mxCell>
        <mxCell id="6POPiay6UJHN39M8ESPT-56" value="True" style="text;html=1;align=center;verticalAlign=middle;resizable=0;points=[];autosize=1;strokeColor=none;fillColor=none;" parent="1" vertex="1">
          <mxGeometry x="206" y="608" width="50" height="30" as="geometry" />
        </mxCell>
        <mxCell id="6POPiay6UJHN39M8ESPT-57" value="False" style="text;html=1;align=center;verticalAlign=middle;resizable=0;points=[];autosize=1;strokeColor=none;fillColor=none;" parent="1" vertex="1">
          <mxGeometry x="256" y="698" width="50" height="30" as="geometry" />
        </mxCell>
        <mxCell id="6POPiay6UJHN39M8ESPT-58" value="True" style="text;html=1;align=center;verticalAlign=middle;resizable=0;points=[];autosize=1;strokeColor=none;fillColor=none;" parent="1" vertex="1">
          <mxGeometry x="215" y="770" width="50" height="30" as="geometry" />
        </mxCell>
        <mxCell id="6POPiay6UJHN39M8ESPT-59" value="True" style="text;html=1;align=center;verticalAlign=middle;resizable=0;points=[];autosize=1;strokeColor=none;fillColor=none;" parent="1" vertex="1">
          <mxGeometry x="446" y="1078" width="50" height="30" as="geometry" />
        </mxCell>
      </root>
    </mxGraphModel>
  </diagram>
</mxfile>
